<?xml version="1.0" standalone="no"?><!DOCTYPE svg PUBLIC "-//W3C//DTD SVG 1.1//EN" "http://www.w3.org/Graphics/SVG/1.1/DTD/svg11.dtd"><svg t="1490161261955" class="icon" style="" viewBox="0 0 1024 1024" version="1.1" xmlns="http://www.w3.org/2000/svg" p-id="2850" xmlns:xlink="http://www.w3.org/1999/xlink" width="200" height="200"><defs><style type="text/css"></style></defs><path d="M342.677 595.002" p-id="2851"></path><path d="M612.287 512l300.867 300.867c18.461 18.461 18.461 48.392 0 66.858l-33.429 33.429c-18.461 18.461-48.397 18.461-66.858 0L512 612.287 211.133 913.154c-18.461 18.461-48.392 18.461-66.853 0l-33.434-33.429c-18.461-18.466-18.461-48.397 0-66.858L411.713 512 110.846 211.133c-18.461-18.457-18.461-48.392 0-66.858l33.434-33.429c18.461-18.461 48.392-18.461 66.853 0L512 411.713l300.867-300.867c18.461-18.461 48.397-18.461 66.858 0l33.429 33.429c18.461 18.466 18.461 48.402 0 66.858L612.287 512z" p-id="2852"></path></svg>